<svg height="8158" width="720" xmlns="http://www.w3.org/2000/svg">
<rect height="8158" fill="#555" width="720"></rect>
<text fill="#7f7" font-family="Courier New" font-size="12" xml:space="preserve">
<tspan x="10" y="26">└─┬ david@11.0.0 </tspan>
<tspan x="10" y="42">  ├─┬ async@2.3.0 </tspan>
<tspan x="10" y="58">  │ └── lodash@4.17.4 </tspan>
<tspan x="10" y="74">  ├─┬ cli-color-tty@2.0.0 </tspan>
<tspan x="10" y="90">  │ └─┬ cli-color@1.2.0 </tspan>
<tspan x="10" y="106">  │   ├── ansi-regex@2.1.1 </tspan>
<tspan x="10" y="122">  │   ├─┬ d@1.0.0 </tspan>
<tspan x="10" y="138">  │   │ └── es5-ext@0.10.15  deduped</tspan>
<tspan x="10" y="154">  │   ├─┬ es5-ext@0.10.15 </tspan>
<tspan x="10" y="170">  │   │ ├── es6-iterator@2.0.1  deduped</tspan>
<tspan x="10" y="186">  │   │ └─┬ es6-symbol@3.1.1 </tspan>
<tspan x="10" y="202">  │   │   ├── d@1.0.0  deduped</tspan>
<tspan x="10" y="218">  │   │   └── es5-ext@0.10.15  deduped</tspan>
<tspan x="10" y="234">  │   ├─┬ es6-iterator@2.0.1 </tspan>
<tspan x="10" y="250">  │   │ ├── d@1.0.0  deduped</tspan>
<tspan x="10" y="266">  │   │ ├── es5-ext@0.10.15  deduped</tspan>
<tspan x="10" y="282">  │   │ └── es6-symbol@3.1.1  deduped</tspan>
<tspan x="10" y="298">  │   ├─┬ memoizee@0.4.4 </tspan>
<tspan x="10" y="314">  │   │ ├── d@1.0.0  deduped</tspan>
<tspan x="10" y="330">  │   │ ├── es5-ext@0.10.15  deduped</tspan>
<tspan x="10" y="346">  │   │ ├─┬ es6-weak-map@2.0.2 </tspan>
<tspan x="10" y="362">  │   │ │ ├── d@1.0.0  deduped</tspan>
<tspan x="10" y="378">  │   │ │ ├── es5-ext@0.10.15  deduped</tspan>
<tspan x="10" y="394">  │   │ │ ├── es6-iterator@2.0.1  deduped</tspan>
<tspan x="10" y="410">  │   │ │ └── es6-symbol@3.1.1  deduped</tspan>
<tspan x="10" y="426">  │   │ ├─┬ event-emitter@0.3.5 </tspan>
<tspan x="10" y="442">  │   │ │ ├── d@1.0.0  deduped</tspan>
<tspan x="10" y="458">  │   │ │ └── es5-ext@0.10.15  deduped</tspan>
<tspan x="10" y="474">  │   │ ├── is-promise@2.1.0 </tspan>
<tspan x="10" y="490">  │   │ ├─┬ lru-queue@0.1.0 </tspan>
<tspan x="10" y="506">  │   │ │ └── es5-ext@0.10.15  deduped</tspan>
<tspan x="10" y="522">  │   │ ├── next-tick@1.0.0 </tspan>
<tspan x="10" y="538">  │   │ └── timers-ext@0.1.2  deduped</tspan>
<tspan x="10" y="554">  │   └─┬ timers-ext@0.1.2 </tspan>
<tspan x="10" y="570">  │     ├── es5-ext@0.10.15  deduped</tspan>
<tspan x="10" y="586">  │     └── next-tick@1.0.0  deduped</tspan>
<tspan x="10" y="602">  ├─┬ cli-table@0.3.1 </tspan>
<tspan x="10" y="618">  │ └── colors@1.0.3 </tspan>
<tspan x="10" y="634">  ├── exit@0.1.2 </tspan>
<tspan x="10" y="650">  ├── minimist@1.2.0 </tspan>
<tspan x="10" y="666">  ├─┬ npm@4.4.4 </tspan>
<tspan x="10" y="682">  │ ├── abbrev@1.1.0 </tspan>
<tspan x="10" y="698">  │ ├── ansi-regex@2.1.1 </tspan>
<tspan x="10" y="714">  │ ├── ansicolors@0.3.2 </tspan>
<tspan x="10" y="730">  │ ├── ansistyles@0.1.3 </tspan>
<tspan x="10" y="746">  │ ├── aproba@1.1.1 </tspan>
<tspan x="10" y="762">  │ ├── archy@1.0.0 </tspan>
<tspan x="10" y="778">  │ ├── asap@2.0.5 </tspan>
<tspan x="10" y="794">  │ ├── bluebird@3.5.0 </tspan>
<tspan x="10" y="810">  │ ├── call-limit@1.1.0 </tspan>
<tspan x="10" y="826">  │ ├── chownr@1.0.1 </tspan>
<tspan x="10" y="842">  │ ├─┬ cmd-shim@2.0.2 </tspan>
<tspan x="10" y="858">  │ │ ├── graceful-fs@4.1.11  deduped</tspan>
<tspan x="10" y="874">  │ │ └── mkdirp@0.5.1  deduped</tspan>
<tspan x="10" y="890">  │ ├─┬ columnify@1.5.4 </tspan>
<tspan x="10" y="906">  │ │ ├── strip-ansi@3.0.1  deduped</tspan>
<tspan x="10" y="922">  │ │ └─┬ wcwidth@1.0.0 </tspan>
<tspan x="10" y="938">  │ │   └─┬ defaults@1.0.3 </tspan>
<tspan x="10" y="954">  │ │     └── clone@1.0.2 </tspan>
<tspan x="10" y="970">  │ ├─┬ config-chain@1.1.11 </tspan>
<tspan x="10" y="986">  │ │ ├── ini@1.3.4  deduped</tspan>
<tspan x="10" y="1002">  │ │ └── proto-list@1.2.4 </tspan>
<tspan x="10" y="1018">  │ ├── debuglog@1.0.1 </tspan>
<tspan x="10" y="1034">  │ ├─┬ dezalgo@1.0.3 </tspan>
<tspan x="10" y="1050">  │ │ ├── asap@2.0.5  deduped</tspan>
<tspan x="10" y="1066">  │ │ └── wrappy@1.0.2  deduped</tspan>
<tspan x="10" y="1082">  │ ├── editor@1.0.0 </tspan>
<tspan x="10" y="1098">  │ ├─┬ fs-vacuum@1.2.10 </tspan>
<tspan x="10" y="1114">  │ │ ├── graceful-fs@4.1.11  deduped</tspan>
<tspan x="10" y="1130">  │ │ ├── path-is-inside@1.0.2  deduped</tspan>
<tspan x="10" y="1146">  │ │ └── rimraf@2.6.1  deduped</tspan>
<tspan x="10" y="1162">  │ ├─┬ fs-write-stream-atomic@1.0.10 </tspan>
<tspan x="10" y="1178">  │ │ ├── graceful-fs@4.1.11  deduped</tspan>
<tspan x="10" y="1194">  │ │ ├── iferr@0.1.5  deduped</tspan>
<tspan x="10" y="1210">  │ │ ├── imurmurhash@0.1.4  deduped</tspan>
<tspan x="10" y="1226">  │ │ └── readable-stream@2.2.3  deduped</tspan>
<tspan x="10" y="1242">  │ ├─┬ fstream@1.0.11 </tspan>
<tspan x="10" y="1258">  │ │ ├── graceful-fs@4.1.11  deduped</tspan>
<tspan x="10" y="1274">  │ │ ├── inherits@2.0.3  deduped</tspan>
<tspan x="10" y="1290">  │ │ ├── mkdirp@0.5.1  deduped</tspan>
<tspan x="10" y="1306">  │ │ └── rimraf@2.6.1  deduped</tspan>
<tspan x="10" y="1322">  │ ├─┬ fstream-npm@1.2.0 </tspan>
<tspan x="10" y="1338">  │ │ ├─┬ fstream-ignore@1.0.5 </tspan>
<tspan x="10" y="1354">  │ │ │ ├── fstream@1.0.11  deduped</tspan>
<tspan x="10" y="1370">  │ │ │ ├── inherits@2.0.3  deduped</tspan>
<tspan x="10" y="1386">  │ │ │ └─┬ minimatch@3.0.3 </tspan>
<tspan x="10" y="1402">  │ │ │   └─┬ brace-expansion@1.1.6 </tspan>
<tspan x="10" y="1418">  │ │ │     ├── balanced-match@0.4.2 </tspan>
<tspan x="10" y="1434">  │ │ │     └── concat-map@0.0.1 </tspan>
<tspan x="10" y="1450">  │ │ └── inherits@2.0.3  deduped</tspan>
<tspan x="10" y="1466">  │ ├─┬ glob@7.1.1 </tspan>
<tspan x="10" y="1482">  │ │ ├── fs.realpath@1.0.0 </tspan>
<tspan x="10" y="1498">  │ │ ├── inflight@1.0.6  deduped</tspan>
<tspan x="10" y="1514">  │ │ ├── inherits@2.0.3  deduped</tspan>
<tspan x="10" y="1530">  │ │ ├─┬ minimatch@3.0.3 </tspan>
<tspan x="10" y="1546">  │ │ │ └─┬ brace-expansion@1.1.6 </tspan>
<tspan x="10" y="1562">  │ │ │   ├── balanced-match@0.4.2 </tspan>
<tspan x="10" y="1578">  │ │ │   └── concat-map@0.0.1 </tspan>
<tspan x="10" y="1594">  │ │ ├── once@1.4.0  deduped</tspan>
<tspan x="10" y="1610">  │ │ └── path-is-absolute@1.0.1 </tspan>
<tspan x="10" y="1626">  │ ├── graceful-fs@4.1.11 </tspan>
<tspan x="10" y="1642">  │ ├── has-unicode@2.0.1 </tspan>
<tspan x="10" y="1658">  │ ├── hosted-git-info@2.2.0 </tspan>
<tspan x="10" y="1674">  │ ├── iferr@0.1.5 </tspan>
<tspan x="10" y="1690">  │ ├── imurmurhash@0.1.4 </tspan>
<tspan x="10" y="1706">  │ ├─┬ inflight@1.0.6 </tspan>
<tspan x="10" y="1722">  │ │ ├── once@1.4.0  deduped</tspan>
<tspan x="10" y="1738">  │ │ └── wrappy@1.0.2  deduped</tspan>
<tspan x="10" y="1754">  │ ├── inherits@2.0.3 </tspan>
<tspan x="10" y="1770">  │ ├── ini@1.3.4 </tspan>
<tspan x="10" y="1786">  │ ├─┬ init-package-json@1.9.5 </tspan>
<tspan x="10" y="1802">  │ │ ├── glob@7.1.1  deduped</tspan>
<tspan x="10" y="1818">  │ │ ├── npm-package-arg@4.2.1  deduped</tspan>
<tspan x="10" y="1834">  │ │ ├─┬ promzard@0.3.0 </tspan>
<tspan x="10" y="1850">  │ │ │ └── read@1.0.7  deduped</tspan>
<tspan x="10" y="1866">  │ │ ├── read@1.0.7  deduped</tspan>
<tspan x="10" y="1882">  │ │ ├── read-package-json@2.0.5  deduped</tspan>
<tspan x="10" y="1898">  │ │ ├── semver@5.3.0  deduped</tspan>
<tspan x="10" y="1914">  │ │ ├── validate-npm-package-license@3.0.1  deduped</tspan>
<tspan x="10" y="1930">  │ │ └── validate-npm-package-name@3.0.0  deduped</tspan>
<tspan x="10" y="1946">  │ ├─┬ JSONStream@1.3.1 </tspan>
<tspan x="10" y="1962">  │ │ ├── jsonparse@1.3.0 </tspan>
<tspan x="10" y="1978">  │ │ └── through@2.3.8 </tspan>
<tspan x="10" y="1994">  │ ├── lazy-property@1.0.0 </tspan>
<tspan x="10" y="2010">  │ ├── lockfile@1.0.3 </tspan>
<tspan x="10" y="2026">  │ ├── lodash._baseindexof@3.1.0 </tspan>
<tspan x="10" y="2042">  │ ├─┬ lodash._baseuniq@4.6.0 </tspan>
<tspan x="10" y="2058">  │ │ ├── lodash._createset@4.0.3 </tspan>
<tspan x="10" y="2074">  │ │ └── lodash._root@3.0.1 </tspan>
<tspan x="10" y="2090">  │ ├── lodash._bindcallback@3.0.1 </tspan>
<tspan x="10" y="2106">  │ ├── lodash._cacheindexof@3.0.2 </tspan>
<tspan x="10" y="2122">  │ ├─┬ lodash._createcache@3.1.2 </tspan>
<tspan x="10" y="2138">  │ │ └── lodash._getnative@3.9.1  deduped</tspan>
<tspan x="10" y="2154">  │ ├── lodash._getnative@3.9.1 </tspan>
<tspan x="10" y="2170">  │ ├── lodash.clonedeep@4.5.0 </tspan>
<tspan x="10" y="2186">  │ ├── lodash.restparam@3.6.1 </tspan>
<tspan x="10" y="2202">  │ ├── lodash.union@4.6.0 </tspan>
<tspan x="10" y="2218">  │ ├── lodash.uniq@4.5.0 </tspan>
<tspan x="10" y="2234">  │ ├── lodash.without@4.4.0 </tspan>
<tspan x="10" y="2250">  │ ├─┬ mississippi@1.3.0 </tspan>
<tspan x="10" y="2266">  │ │ ├─┬ concat-stream@1.6.0 </tspan>
<tspan x="10" y="2282">  │ │ │ ├── inherits@2.0.3  deduped</tspan>
<tspan x="10" y="2298">  │ │ │ ├── readable-stream@2.2.3  deduped</tspan>
<tspan x="10" y="2314">  │ │ │ └── typedarray@0.0.6 </tspan>
<tspan x="10" y="2330">  │ │ ├─┬ duplexify@3.5.0 </tspan>
<tspan x="10" y="2346">  │ │ │ ├─┬ end-of-stream@1.0.0 </tspan>
<tspan x="10" y="2362">  │ │ │ │ └─┬ once@1.3.3 </tspan>
<tspan x="10" y="2378">  │ │ │ │   └── wrappy@1.0.2  deduped</tspan>
<tspan x="10" y="2394">  │ │ │ ├── inherits@2.0.3  deduped</tspan>
<tspan x="10" y="2410">  │ │ │ ├── readable-stream@2.2.3  deduped</tspan>
<tspan x="10" y="2426">  │ │ │ └── stream-shift@1.0.0 </tspan>
<tspan x="10" y="2442">  │ │ ├─┬ end-of-stream@1.1.0 </tspan>
<tspan x="10" y="2458">  │ │ │ └─┬ once@1.3.3 </tspan>
<tspan x="10" y="2474">  │ │ │   └── wrappy@1.0.2  deduped</tspan>
<tspan x="10" y="2490">  │ │ ├─┬ flush-write-stream@1.0.2 </tspan>
<tspan x="10" y="2506">  │ │ │ ├── inherits@2.0.3  deduped</tspan>
<tspan x="10" y="2522">  │ │ │ └── readable-stream@2.2.3  deduped</tspan>
<tspan x="10" y="2538">  │ │ ├─┬ from2@2.3.0 </tspan>
<tspan x="10" y="2554">  │ │ │ ├── inherits@2.0.3  deduped</tspan>
<tspan x="10" y="2570">  │ │ │ └── readable-stream@2.2.3  deduped</tspan>
<tspan x="10" y="2586">  │ │ ├─┬ parallel-transform@1.1.0 </tspan>
<tspan x="10" y="2602">  │ │ │ ├── cyclist@0.2.2 </tspan>
<tspan x="10" y="2618">  │ │ │ ├── inherits@2.0.3  deduped</tspan>
<tspan x="10" y="2634">  │ │ │ └── readable-stream@2.2.3  deduped</tspan>
<tspan x="10" y="2650">  │ │ ├─┬ pump@1.0.2 </tspan>
<tspan x="10" y="2666">  │ │ │ ├── end-of-stream@1.1.0  deduped</tspan>
<tspan x="10" y="2682">  │ │ │ └── once@1.4.0  deduped</tspan>
<tspan x="10" y="2698">  │ │ ├─┬ pumpify@1.3.5 </tspan>
<tspan x="10" y="2714">  │ │ │ ├── duplexify@3.5.0  deduped</tspan>
<tspan x="10" y="2730">  │ │ │ ├── inherits@2.0.3  deduped</tspan>
<tspan x="10" y="2746">  │ │ │ └── pump@1.0.2  deduped</tspan>
<tspan x="10" y="2762">  │ │ ├─┬ stream-each@1.2.0 </tspan>
<tspan x="10" y="2778">  │ │ │ ├── end-of-stream@1.1.0  deduped</tspan>
<tspan x="10" y="2794">  │ │ │ └── stream-shift@1.0.0 </tspan>
<tspan x="10" y="2810">  │ │ └─┬ through2@2.0.3 </tspan>
<tspan x="10" y="2826">  │ │   ├── readable-stream@2.2.3  deduped</tspan>
<tspan x="10" y="2842">  │ │   └── xtend@4.0.1 </tspan>
<tspan x="10" y="2858">  │ ├─┬ mkdirp@0.5.1 </tspan>
<tspan x="10" y="2874">  │ │ └── minimist@0.0.8 </tspan>
<tspan x="10" y="2890">  │ ├─┬ move-concurrently@1.0.1 </tspan>
<tspan x="10" y="2906">  │ │ ├── aproba@1.1.1  deduped</tspan>
<tspan x="10" y="2922">  │ │ ├─┬ copy-concurrently@1.0.3 </tspan>
<tspan x="10" y="2938">  │ │ │ ├── aproba@1.1.1  deduped</tspan>
<tspan x="10" y="2954">  │ │ │ ├── fs-write-stream-atomic@1.0.10  deduped</tspan>
<tspan x="10" y="2970">  │ │ │ ├── iferr@0.1.5  deduped</tspan>
<tspan x="10" y="2986">  │ │ │ ├── mkdirp@0.5.1  deduped</tspan>
<tspan x="10" y="3002">  │ │ │ ├── rimraf@2.6.1  deduped</tspan>
<tspan x="10" y="3018">  │ │ │ └── run-queue@1.0.3  deduped</tspan>
<tspan x="10" y="3034">  │ │ ├── fs-write-stream-atomic@1.0.10  deduped</tspan>
<tspan x="10" y="3050">  │ │ ├── mkdirp@0.5.1  deduped</tspan>
<tspan x="10" y="3066">  │ │ ├── rimraf@2.6.1  deduped</tspan>
<tspan x="10" y="3082">  │ │ └─┬ run-queue@1.0.3 </tspan>
<tspan x="10" y="3098">  │ │   └── aproba@1.1.1  deduped</tspan>
<tspan x="10" y="3114">  │ ├─┬ node-gyp@3.5.0 </tspan>
<tspan x="10" y="3130">  │ │ ├── fstream@1.0.11  deduped</tspan>
<tspan x="10" y="3146">  │ │ ├── glob@7.1.1  deduped</tspan>
<tspan x="10" y="3162">  │ │ ├── graceful-fs@4.1.11  deduped</tspan>
<tspan x="10" y="3178">  │ │ ├─┬ minimatch@3.0.3 </tspan>
<tspan x="10" y="3194">  │ │ │ └─┬ brace-expansion@1.1.6 </tspan>
<tspan x="10" y="3210">  │ │ │   ├── balanced-match@0.4.2 </tspan>
<tspan x="10" y="3226">  │ │ │   └── concat-map@0.0.1 </tspan>
<tspan x="10" y="3242">  │ │ ├── mkdirp@0.5.1  deduped</tspan>
<tspan x="10" y="3258">  │ │ ├─┬ nopt@3.0.6 </tspan>
<tspan x="10" y="3274">  │ │ │ └── abbrev@1.1.0  deduped</tspan>
<tspan x="10" y="3290">  │ │ ├── npmlog@4.0.2  deduped</tspan>
<tspan x="10" y="3306">  │ │ ├── osenv@0.1.4  deduped</tspan>
<tspan x="10" y="3322">  │ │ ├── request@2.81.0  deduped</tspan>
<tspan x="10" y="3338">  │ │ ├── rimraf@2.6.1  deduped</tspan>
<tspan x="10" y="3354">  │ │ ├── semver@5.3.0  deduped</tspan>
<tspan x="10" y="3370">  │ │ ├── tar@2.2.1  deduped</tspan>
<tspan x="10" y="3386">  │ │ └── which@1.2.12  deduped</tspan>
<tspan x="10" y="3402">  │ ├─┬ nopt@4.0.1 </tspan>
<tspan x="10" y="3418">  │ │ ├── abbrev@1.1.0  deduped</tspan>
<tspan x="10" y="3434">  │ │ └─┬ osenv@0.1.4 </tspan>
<tspan x="10" y="3450">  │ │   ├── os-homedir@1.0.2 </tspan>
<tspan x="10" y="3466">  │ │   └── os-tmpdir@1.0.2 </tspan>
<tspan x="10" y="3482">  │ ├── normalize-git-url@3.0.2 </tspan>
<tspan x="10" y="3498">  │ ├─┬ normalize-package-data@2.3.6 </tspan>
<tspan x="10" y="3514">  │ │ ├── hosted-git-info@2.2.0  deduped</tspan>
<tspan x="10" y="3530">  │ │ ├─┬ is-builtin-module@1.0.0 </tspan>
<tspan x="10" y="3546">  │ │ │ └── builtin-modules@1.1.1 </tspan>
<tspan x="10" y="3562">  │ │ ├── semver@5.3.0  deduped</tspan>
<tspan x="10" y="3578">  │ │ └── validate-npm-package-license@3.0.1  deduped</tspan>
<tspan x="10" y="3594">  │ ├── npm-cache-filename@1.0.2 </tspan>
<tspan x="10" y="3610">  │ ├─┬ npm-install-checks@3.0.0 </tspan>
<tspan x="10" y="3626">  │ │ └── semver@5.3.0  deduped</tspan>
<tspan x="10" y="3642">  │ ├─┬ npm-package-arg@4.2.1 </tspan>
<tspan x="10" y="3658">  │ │ ├── hosted-git-info@2.2.0  deduped</tspan>
<tspan x="10" y="3674">  │ │ └── semver@5.3.0  deduped</tspan>
<tspan x="10" y="3690">  │ ├─┬ npm-registry-client@7.4.6 </tspan>
<tspan x="10" y="3706">  │ │ ├─┬ concat-stream@1.6.0 </tspan>
<tspan x="10" y="3722">  │ │ │ ├── inherits@2.0.3  deduped</tspan>
<tspan x="10" y="3738">  │ │ │ ├── readable-stream@2.2.3  deduped</tspan>
<tspan x="10" y="3754">  │ │ │ └── typedarray@0.0.6 </tspan>
<tspan x="10" y="3770">  │ │ ├── graceful-fs@4.1.11  deduped</tspan>
<tspan x="10" y="3786">  │ │ ├── normalize-package-data@2.3.6  deduped</tspan>
<tspan x="10" y="3802">  │ │ ├── npm-package-arg@4.2.1  deduped</tspan>
<tspan x="10" y="3818">  │ │ ├── npmlog@4.0.2  deduped</tspan>
<tspan x="10" y="3834">  │ │ ├── once@1.4.0  deduped</tspan>
<tspan x="10" y="3850">  │ │ ├── request@2.81.0  deduped</tspan>
<tspan x="10" y="3866">  │ │ ├── retry@0.10.1  deduped</tspan>
<tspan x="10" y="3882">  │ │ ├── semver@5.3.0  deduped</tspan>
<tspan x="10" y="3898">  │ │ └── slide@1.1.6  deduped</tspan>
<tspan x="10" y="3914">  │ ├── npm-user-validate@0.1.5 </tspan>
<tspan x="10" y="3930">  │ ├─┬ npmlog@4.0.2 </tspan>
<tspan x="10" y="3946">  │ │ ├─┬ are-we-there-yet@1.1.2 </tspan>
<tspan x="10" y="3962">  │ │ │ ├── delegates@1.0.0 </tspan>
<tspan x="10" y="3978">  │ │ │ └── readable-stream@2.2.3  deduped</tspan>
<tspan x="10" y="3994">  │ │ ├── console-control-strings@1.1.0 </tspan>
<tspan x="10" y="4010">  │ │ ├─┬ gauge@2.7.2 </tspan>
<tspan x="10" y="4026">  │ │ │ ├── aproba@1.1.1  deduped</tspan>
<tspan x="10" y="4042">  │ │ │ ├── console-control-strings@1.1.0  deduped</tspan>
<tspan x="10" y="4058">  │ │ │ ├── has-unicode@2.0.1  deduped</tspan>
<tspan x="10" y="4074">  │ │ │ ├── object-assign@4.1.0 </tspan>
<tspan x="10" y="4090">  │ │ │ ├── signal-exit@3.0.2 </tspan>
<tspan x="10" y="4106">  │ │ │ ├─┬ string-width@1.0.2 </tspan>
<tspan x="10" y="4122">  │ │ │ │ ├── code-point-at@1.1.0 </tspan>
<tspan x="10" y="4138">  │ │ │ │ ├─┬ is-fullwidth-code-point@1.0.0 </tspan>
<tspan x="10" y="4154">  │ │ │ │ │ └── number-is-nan@1.0.1 </tspan>
<tspan x="10" y="4170">  │ │ │ │ └── strip-ansi@3.0.1  deduped</tspan>
<tspan x="10" y="4186">  │ │ │ ├── strip-ansi@3.0.1  deduped</tspan>
<tspan x="10" y="4202">  │ │ │ ├── supports-color@0.2.0 </tspan>
<tspan x="10" y="4218">  │ │ │ └─┬ wide-align@1.1.0 </tspan>
<tspan x="10" y="4234">  │ │ │   └── string-width@1.0.2  deduped</tspan>
<tspan x="10" y="4250">  │ │ └── set-blocking@2.0.0 </tspan>
<tspan x="10" y="4266">  │ ├─┬ once@1.4.0 </tspan>
<tspan x="10" y="4282">  │ │ └── wrappy@1.0.2  deduped</tspan>
<tspan x="10" y="4298">  │ ├── opener@1.4.3 </tspan>
<tspan x="10" y="4314">  │ ├─┬ osenv@0.1.4 </tspan>
<tspan x="10" y="4330">  │ │ ├── os-homedir@1.0.2 </tspan>
<tspan x="10" y="4346">  │ │ └── os-tmpdir@1.0.2 </tspan>
<tspan x="10" y="4362">  │ ├── path-is-inside@1.0.2 </tspan>
<tspan x="10" y="4378">  │ ├─┬ read@1.0.7 </tspan>
<tspan x="10" y="4394">  │ │ └── mute-stream@0.0.5 </tspan>
<tspan x="10" y="4410">  │ ├─┬ read-cmd-shim@1.0.1 </tspan>
<tspan x="10" y="4426">  │ │ └── graceful-fs@4.1.11  deduped</tspan>
<tspan x="10" y="4442">  │ ├─┬ read-installed@4.0.3 </tspan>
<tspan x="10" y="4458">  │ │ ├── debuglog@1.0.1  deduped</tspan>
<tspan x="10" y="4474">  │ │ ├── graceful-fs@4.1.11  deduped</tspan>
<tspan x="10" y="4490">  │ │ ├── read-package-json@2.0.5  deduped</tspan>
<tspan x="10" y="4506">  │ │ ├── readdir-scoped-modules@1.0.2  deduped</tspan>
<tspan x="10" y="4522">  │ │ ├── semver@5.3.0  deduped</tspan>
<tspan x="10" y="4538">  │ │ ├── slide@1.1.6  deduped</tspan>
<tspan x="10" y="4554">  │ │ └── util-extend@1.0.3 </tspan>
<tspan x="10" y="4570">  │ ├─┬ read-package-json@2.0.5 </tspan>
<tspan x="10" y="4586">  │ │ ├── glob@7.1.1  deduped</tspan>
<tspan x="10" y="4602">  │ │ ├── graceful-fs@4.1.11  deduped</tspan>
<tspan x="10" y="4618">  │ │ ├─┬ json-parse-helpfulerror@1.0.3 </tspan>
<tspan x="10" y="4634">  │ │ │ └── jju@1.3.0 </tspan>
<tspan x="10" y="4650">  │ │ └── normalize-package-data@2.3.6  deduped</tspan>
<tspan x="10" y="4666">  │ ├─┬ read-package-tree@5.1.5 </tspan>
<tspan x="10" y="4682">  │ │ ├── debuglog@1.0.1  deduped</tspan>
<tspan x="10" y="4698">  │ │ ├── dezalgo@1.0.3  deduped</tspan>
<tspan x="10" y="4714">  │ │ ├── once@1.4.0  deduped</tspan>
<tspan x="10" y="4730">  │ │ ├── read-package-json@2.0.5  deduped</tspan>
<tspan x="10" y="4746">  │ │ └── readdir-scoped-modules@1.0.2  deduped</tspan>
<tspan x="10" y="4762">  │ ├─┬ readable-stream@2.2.3 </tspan>
<tspan x="10" y="4778">  │ │ ├── buffer-shims@1.0.0 </tspan>
<tspan x="10" y="4794">  │ │ ├── core-util-is@1.0.2 </tspan>
<tspan x="10" y="4810">  │ │ ├── inherits@2.0.3  deduped</tspan>
<tspan x="10" y="4826">  │ │ ├── isarray@1.0.0 </tspan>
<tspan x="10" y="4842">  │ │ ├── process-nextick-args@1.0.7 </tspan>
<tspan x="10" y="4858">  │ │ ├── string_decoder@0.10.31 </tspan>
<tspan x="10" y="4874">  │ │ └── util-deprecate@1.0.2 </tspan>
<tspan x="10" y="4890">  │ ├─┬ readdir-scoped-modules@1.0.2 </tspan>
<tspan x="10" y="4906">  │ │ ├── debuglog@1.0.1  deduped</tspan>
<tspan x="10" y="4922">  │ │ ├── dezalgo@1.0.3  deduped</tspan>
<tspan x="10" y="4938">  │ │ ├── graceful-fs@4.1.11  deduped</tspan>
<tspan x="10" y="4954">  │ │ └── once@1.4.0  deduped</tspan>
<tspan x="10" y="4970">  │ ├─┬ realize-package-specifier@3.0.3 </tspan>
<tspan x="10" y="4986">  │ │ ├── dezalgo@1.0.3  deduped</tspan>
<tspan x="10" y="5002">  │ │ └── npm-package-arg@4.2.1  deduped</tspan>
<tspan x="10" y="5018">  │ ├─┬ request@2.81.0 </tspan>
<tspan x="10" y="5034">  │ │ ├── aws-sign2@0.6.0 </tspan>
<tspan x="10" y="5050">  │ │ ├── aws4@1.6.0 </tspan>
<tspan x="10" y="5066">  │ │ ├── caseless@0.12.0 </tspan>
<tspan x="10" y="5082">  │ │ ├─┬ combined-stream@1.0.5 </tspan>
<tspan x="10" y="5098">  │ │ │ └── delayed-stream@1.0.0 </tspan>
<tspan x="10" y="5114">  │ │ ├── extend@3.0.0 </tspan>
<tspan x="10" y="5130">  │ │ ├── forever-agent@0.6.1 </tspan>
<tspan x="10" y="5146">  │ │ ├─┬ form-data@2.1.2 </tspan>
<tspan x="10" y="5162">  │ │ │ ├── asynckit@0.4.0 </tspan>
<tspan x="10" y="5178">  │ │ │ ├── combined-stream@1.0.5  deduped</tspan>
<tspan x="10" y="5194">  │ │ │ └── mime-types@2.1.14  deduped</tspan>
<tspan x="10" y="5210">  │ │ ├─┬ har-validator@4.2.1 </tspan>
<tspan x="10" y="5226">  │ │ │ ├─┬ ajv@4.11.4 </tspan>
<tspan x="10" y="5242">  │ │ │ │ ├── co@4.6.0 </tspan>
<tspan x="10" y="5258">  │ │ │ │ └─┬ json-stable-stringify@1.0.1 </tspan>
<tspan x="10" y="5274">  │ │ │ │   └── jsonify@0.0.0 </tspan>
<tspan x="10" y="5290">  │ │ │ └── har-schema@1.0.5 </tspan>
<tspan x="10" y="5306">  │ │ ├─┬ hawk@3.1.3 </tspan>
<tspan x="10" y="5322">  │ │ │ ├─┬ boom@2.10.1 </tspan>
<tspan x="10" y="5338">  │ │ │ │ └── hoek@2.16.3  deduped</tspan>
<tspan x="10" y="5354">  │ │ │ ├─┬ cryptiles@2.0.5 </tspan>
<tspan x="10" y="5370">  │ │ │ │ └── boom@2.10.1  deduped</tspan>
<tspan x="10" y="5386">  │ │ │ ├── hoek@2.16.3 </tspan>
<tspan x="10" y="5402">  │ │ │ └─┬ sntp@1.0.9 </tspan>
<tspan x="10" y="5418">  │ │ │   └── hoek@2.16.3  deduped</tspan>
<tspan x="10" y="5434">  │ │ ├─┬ http-signature@1.1.1 </tspan>
<tspan x="10" y="5450">  │ │ │ ├── assert-plus@0.2.0 </tspan>
<tspan x="10" y="5466">  │ │ │ ├─┬ jsprim@1.3.1 </tspan>
<tspan x="10" y="5482">  │ │ │ │ ├── extsprintf@1.0.2 </tspan>
<tspan x="10" y="5498">  │ │ │ │ ├── json-schema@0.2.3 </tspan>
<tspan x="10" y="5514">  │ │ │ │ └─┬ verror@1.3.6 </tspan>
<tspan x="10" y="5530">  │ │ │ │   └── extsprintf@1.0.2  deduped</tspan>
<tspan x="10" y="5546">  │ │ │ └─┬ sshpk@1.11.0 </tspan>
<tspan x="10" y="5562">  │ │ │   ├── asn1@0.2.3 </tspan>
<tspan x="10" y="5578">  │ │ │   ├── assert-plus@1.0.0 </tspan>
<tspan x="10" y="5594">  │ │ │   ├─┬ bcrypt-pbkdf@1.0.1 </tspan>
<tspan x="10" y="5610">  │ │ │   │ └── tweetnacl@0.14.5  deduped</tspan>
<tspan x="10" y="5626">  │ │ │   ├─┬ dashdash@1.14.1 </tspan>
<tspan x="10" y="5642">  │ │ │   │ └── assert-plus@1.0.0  deduped</tspan>
<tspan x="10" y="5658">  │ │ │   ├─┬ ecc-jsbn@0.1.1 </tspan>
<tspan x="10" y="5674">  │ │ │   │ └── jsbn@0.1.1  deduped</tspan>
<tspan x="10" y="5690">  │ │ │   ├─┬ getpass@0.1.6 </tspan>
<tspan x="10" y="5706">  │ │ │   │ └── assert-plus@1.0.0  deduped</tspan>
<tspan x="10" y="5722">  │ │ │   ├─┬ jodid25519@1.0.2 </tspan>
<tspan x="10" y="5738">  │ │ │   │ └── jsbn@0.1.1  deduped</tspan>
<tspan x="10" y="5754">  │ │ │   ├── jsbn@0.1.1 </tspan>
<tspan x="10" y="5770">  │ │ │   └── tweetnacl@0.14.5 </tspan>
<tspan x="10" y="5786">  │ │ ├── is-typedarray@1.0.0 </tspan>
<tspan x="10" y="5802">  │ │ ├── isstream@0.1.2 </tspan>
<tspan x="10" y="5818">  │ │ ├── json-stringify-safe@5.0.1 </tspan>
<tspan x="10" y="5834">  │ │ ├─┬ mime-types@2.1.14 </tspan>
<tspan x="10" y="5850">  │ │ │ └── mime-db@1.26.0 </tspan>
<tspan x="10" y="5866">  │ │ ├── oauth-sign@0.8.2 </tspan>
<tspan x="10" y="5882">  │ │ ├── performance-now@0.2.0 </tspan>
<tspan x="10" y="5898">  │ │ ├── qs@6.4.0 </tspan>
<tspan x="10" y="5914">  │ │ ├── safe-buffer@5.0.1 </tspan>
<tspan x="10" y="5930">  │ │ ├── stringstream@0.0.5 </tspan>
<tspan x="10" y="5946">  │ │ ├─┬ tough-cookie@2.3.2 </tspan>
<tspan x="10" y="5962">  │ │ │ └── punycode@1.4.1 </tspan>
<tspan x="10" y="5978">  │ │ ├─┬ tunnel-agent@0.6.0 </tspan>
<tspan x="10" y="5994">  │ │ │ └── safe-buffer@5.0.1  deduped</tspan>
<tspan x="10" y="6010">  │ │ └── uuid@3.0.1  deduped</tspan>
<tspan x="10" y="6026">  │ ├── retry@0.10.1 </tspan>
<tspan x="10" y="6042">  │ ├─┬ rimraf@2.6.1 </tspan>
<tspan x="10" y="6058">  │ │ └── glob@7.1.1  deduped</tspan>
<tspan x="10" y="6074">  │ ├── semver@5.3.0 </tspan>
<tspan x="10" y="6090">  │ ├─┬ sha@2.0.1 </tspan>
<tspan x="10" y="6106">  │ │ ├── graceful-fs@4.1.11  deduped</tspan>
<tspan x="10" y="6122">  │ │ └── readable-stream@2.2.3  deduped</tspan>
<tspan x="10" y="6138">  │ ├── slide@1.1.6 </tspan>
<tspan x="10" y="6154">  │ ├── sorted-object@2.0.1 </tspan>
<tspan x="10" y="6170">  │ ├─┬ sorted-union-stream@2.1.3 </tspan>
<tspan x="10" y="6186">  │ │ ├─┬ from2@1.3.0 </tspan>
<tspan x="10" y="6202">  │ │ │ ├── inherits@2.0.3  deduped</tspan>
<tspan x="10" y="6218">  │ │ │ └─┬ readable-stream@1.1.14 </tspan>
<tspan x="10" y="6234">  │ │ │   ├── core-util-is@1.0.2 </tspan>
<tspan x="10" y="6250">  │ │ │   ├── inherits@2.0.3  deduped</tspan>
<tspan x="10" y="6266">  │ │ │   ├── isarray@0.0.1 </tspan>
<tspan x="10" y="6282">  │ │ │   └── string_decoder@0.10.31 </tspan>
<tspan x="10" y="6298">  │ │ └── stream-iterate@1.1.1 </tspan>
<tspan x="10" y="6314">  │ ├─┬ strip-ansi@3.0.1 </tspan>
<tspan x="10" y="6330">  │ │ └── ansi-regex@2.1.1  deduped</tspan>
<tspan x="10" y="6346">  │ ├─┬ tar@2.2.1 </tspan>
<tspan x="10" y="6362">  │ │ ├─┬ block-stream@0.0.8 </tspan>
<tspan x="10" y="6378">  │ │ │ └── inherits@2.0.3  deduped</tspan>
<tspan x="10" y="6394">  │ │ ├── fstream@1.0.11  deduped</tspan>
<tspan x="10" y="6410">  │ │ └── inherits@2.0.3  deduped</tspan>
<tspan x="10" y="6426">  │ ├── text-table@0.2.0 </tspan>
<tspan x="10" y="6442">  │ ├── uid-number@0.0.6 </tspan>
<tspan x="10" y="6458">  │ ├── umask@1.1.0 </tspan>
<tspan x="10" y="6474">  │ ├─┬ unique-filename@1.1.0 </tspan>
<tspan x="10" y="6490">  │ │ └─┬ unique-slug@2.0.0 </tspan>
<tspan x="10" y="6506">  │ │   └── imurmurhash@0.1.4  deduped</tspan>
<tspan x="10" y="6522">  │ ├── unpipe@1.0.0 </tspan>
<tspan x="10" y="6538">  │ ├─┬ update-notifier@2.1.0 </tspan>
<tspan x="10" y="6554">  │ │ ├─┬ boxen@1.0.0 </tspan>
<tspan x="10" y="6570">  │ │ │ ├─┬ ansi-align@1.1.0 </tspan>
<tspan x="10" y="6586">  │ │ │ │ └─┬ string-width@1.0.2 </tspan>
<tspan x="10" y="6602">  │ │ │ │   ├── code-point-at@1.1.0 </tspan>
<tspan x="10" y="6618">  │ │ │ │   ├─┬ is-fullwidth-code-point@1.0.0 </tspan>
<tspan x="10" y="6634">  │ │ │ │   │ └── number-is-nan@1.0.1 </tspan>
<tspan x="10" y="6650">  │ │ │ │   └── strip-ansi@3.0.1  deduped</tspan>
<tspan x="10" y="6666">  │ │ │ ├── camelcase@4.0.0 </tspan>
<tspan x="10" y="6682">  │ │ │ ├── chalk@1.1.3  deduped</tspan>
<tspan x="10" y="6698">  │ │ │ ├── cli-boxes@1.0.0 </tspan>
<tspan x="10" y="6714">  │ │ │ ├─┬ string-width@2.0.0 </tspan>
<tspan x="10" y="6730">  │ │ │ │ ├── is-fullwidth-code-point@2.0.0 </tspan>
<tspan x="10" y="6746">  │ │ │ │ └── strip-ansi@3.0.1  deduped</tspan>
<tspan x="10" y="6762">  │ │ │ ├─┬ term-size@0.1.1 </tspan>
<tspan x="10" y="6778">  │ │ │ │ └─┬ execa@0.4.0 </tspan>
<tspan x="10" y="6794">  │ │ │ │   ├─┬ cross-spawn-async@2.2.5 </tspan>
<tspan x="10" y="6810">  │ │ │ │   │ ├─┬ lru-cache@4.0.2 </tspan>
<tspan x="10" y="6826">  │ │ │ │   │ │ ├── pseudomap@1.0.2 </tspan>
<tspan x="10" y="6842">  │ │ │ │   │ │ └── yallist@2.0.0 </tspan>
<tspan x="10" y="6858">  │ │ │ │   │ └── which@1.2.12  deduped</tspan>
<tspan x="10" y="6874">  │ │ │ │   ├── is-stream@1.1.0 </tspan>
<tspan x="10" y="6890">  │ │ │ │   ├─┬ npm-run-path@1.0.0 </tspan>
<tspan x="10" y="6906">  │ │ │ │   │ └── path-key@1.0.0  deduped</tspan>
<tspan x="10" y="6922">  │ │ │ │   ├── object-assign@4.1.1 </tspan>
<tspan x="10" y="6938">  │ │ │ │   ├── path-key@1.0.0 </tspan>
<tspan x="10" y="6954">  │ │ │ │   └── strip-eof@1.0.0 </tspan>
<tspan x="10" y="6970">  │ │ │ └─┬ widest-line@1.0.0 </tspan>
<tspan x="10" y="6986">  │ │ │   └─┬ string-width@1.0.2 </tspan>
<tspan x="10" y="7002">  │ │ │     ├── code-point-at@1.1.0 </tspan>
<tspan x="10" y="7018">  │ │ │     ├─┬ is-fullwidth-code-point@1.0.0 </tspan>
<tspan x="10" y="7034">  │ │ │     │ └── number-is-nan@1.0.1 </tspan>
<tspan x="10" y="7050">  │ │ │     └── strip-ansi@3.0.1  deduped</tspan>
<tspan x="10" y="7066">  │ │ ├─┬ chalk@1.1.3 </tspan>
<tspan x="10" y="7082">  │ │ │ ├── ansi-styles@2.2.1 </tspan>
<tspan x="10" y="7098">  │ │ │ ├── escape-string-regexp@1.0.5 </tspan>
<tspan x="10" y="7114">  │ │ │ ├─┬ has-ansi@2.0.0 </tspan>
<tspan x="10" y="7130">  │ │ │ │ └── ansi-regex@2.1.1  deduped</tspan>
<tspan x="10" y="7146">  │ │ │ ├── strip-ansi@3.0.1  deduped</tspan>
<tspan x="10" y="7162">  │ │ │ └── supports-color@2.0.0 </tspan>
<tspan x="10" y="7178">  │ │ ├─┬ configstore@3.0.0 </tspan>
<tspan x="10" y="7194">  │ │ │ ├─┬ dot-prop@4.1.1 </tspan>
<tspan x="10" y="7210">  │ │ │ │ └── is-obj@1.0.1 </tspan>
<tspan x="10" y="7226">  │ │ │ ├── graceful-fs@4.1.11  deduped</tspan>
<tspan x="10" y="7242">  │ │ │ ├── mkdirp@0.5.1  deduped</tspan>
<tspan x="10" y="7258">  │ │ │ ├─┬ unique-string@1.0.0 </tspan>
<tspan x="10" y="7274">  │ │ │ │ └── crypto-random-string@1.0.0 </tspan>
<tspan x="10" y="7290">  │ │ │ ├── write-file-atomic@1.3.1  deduped</tspan>
<tspan x="10" y="7306">  │ │ │ └── xdg-basedir@3.0.0  deduped</tspan>
<tspan x="10" y="7322">  │ │ ├── is-npm@1.0.0 </tspan>
<tspan x="10" y="7338">  │ │ ├─┬ latest-version@3.0.0 </tspan>
<tspan x="10" y="7354">  │ │ │ └─┬ package-json@3.1.0 </tspan>
<tspan x="10" y="7370">  │ │ │   ├─┬ got@6.7.1 </tspan>
<tspan x="10" y="7386">  │ │ │   │ ├─┬ create-error-class@3.0.2 </tspan>
<tspan x="10" y="7402">  │ │ │   │ │ └── capture-stack-trace@1.0.0 </tspan>
<tspan x="10" y="7418">  │ │ │   │ ├── duplexer3@0.1.4 </tspan>
<tspan x="10" y="7434">  │ │ │   │ ├── get-stream@3.0.0 </tspan>
<tspan x="10" y="7450">  │ │ │   │ ├── is-redirect@1.0.0 </tspan>
<tspan x="10" y="7466">  │ │ │   │ ├── is-retry-allowed@1.1.0 </tspan>
<tspan x="10" y="7482">  │ │ │   │ ├── is-stream@1.1.0 </tspan>
<tspan x="10" y="7498">  │ │ │   │ ├── lowercase-keys@1.0.0 </tspan>
<tspan x="10" y="7514">  │ │ │   │ ├── safe-buffer@5.0.1 </tspan>
<tspan x="10" y="7530">  │ │ │   │ ├── timed-out@4.0.1 </tspan>
<tspan x="10" y="7546">  │ │ │   │ ├── unzip-response@2.0.1 </tspan>
<tspan x="10" y="7562">  │ │ │   │ └─┬ url-parse-lax@1.0.0 </tspan>
<tspan x="10" y="7578">  │ │ │   │   └── prepend-http@1.0.4 </tspan>
<tspan x="10" y="7594">  │ │ │   ├─┬ registry-auth-token@3.1.0 </tspan>
<tspan x="10" y="7610">  │ │ │   │ └─┬ rc@1.1.7 </tspan>
<tspan x="10" y="7626">  │ │ │   │   ├── deep-extend@0.4.1 </tspan>
<tspan x="10" y="7642">  │ │ │   │   ├── ini@1.3.4  deduped</tspan>
<tspan x="10" y="7658">  │ │ │   │   ├── minimist@1.2.0 </tspan>
<tspan x="10" y="7674">  │ │ │   │   └── strip-json-comments@2.0.1 </tspan>
<tspan x="10" y="7690">  │ │ │   ├─┬ registry-url@3.1.0 </tspan>
<tspan x="10" y="7706">  │ │ │   │ └─┬ rc@1.1.7 </tspan>
<tspan x="10" y="7722">  │ │ │   │   ├── deep-extend@0.4.1 </tspan>
<tspan x="10" y="7738">  │ │ │   │   ├── ini@1.3.4  deduped</tspan>
<tspan x="10" y="7754">  │ │ │   │   ├── minimist@1.2.0 </tspan>
<tspan x="10" y="7770">  │ │ │   │   └── strip-json-comments@2.0.1 </tspan>
<tspan x="10" y="7786">  │ │ │   └── semver@5.3.0  deduped</tspan>
<tspan x="10" y="7802">  │ │ ├── lazy-req@2.0.0 </tspan>
<tspan x="10" y="7818">  │ │ ├─┬ semver-diff@2.1.0 </tspan>
<tspan x="10" y="7834">  │ │ │ └── semver@5.3.0  deduped</tspan>
<tspan x="10" y="7850">  │ │ └── xdg-basedir@3.0.0 </tspan>
<tspan x="10" y="7866">  │ ├── uuid@3.0.1 </tspan>
<tspan x="10" y="7882">  │ ├─┬ validate-npm-package-license@3.0.1 </tspan>
<tspan x="10" y="7898">  │ │ ├─┬ spdx-correct@1.0.2 </tspan>
<tspan x="10" y="7914">  │ │ │ └── spdx-license-ids@1.2.0 </tspan>
<tspan x="10" y="7930">  │ │ └─┬ spdx-expression-parse@1.0.2 </tspan>
<tspan x="10" y="7946">  │ │   ├── spdx-exceptions@1.0.4 </tspan>
<tspan x="10" y="7962">  │ │   └── spdx-license-ids@1.2.0 </tspan>
<tspan x="10" y="7978">  │ ├─┬ validate-npm-package-name@3.0.0 </tspan>
<tspan x="10" y="7994">  │ │ └── builtins@1.0.3 </tspan>
<tspan x="10" y="8010">  │ ├─┬ which@1.2.12 </tspan>
<tspan x="10" y="8026">  │ │ └── isexe@1.1.2 </tspan>
<tspan x="10" y="8042">  │ ├── wrappy@1.0.2 </tspan>
<tspan x="10" y="8058">  │ └─┬ write-file-atomic@1.3.1 </tspan>
<tspan x="10" y="8074">  │   ├── graceful-fs@4.1.11  deduped</tspan>
<tspan x="10" y="8090">  │   ├── imurmurhash@0.1.4  deduped</tspan>
<tspan x="10" y="8106">  │   └── slide@1.1.6  deduped</tspan>
<tspan x="10" y="8122">  ├── semver@5.3.0 </tspan>
<tspan x="10" y="8138">  └── xtend@4.0.1</tspan>
</text>
</svg>
